<?xml version="1.0" encoding="UTF-8"?>
<svg width="10px" height="10px" viewBox="0 0 10 10" version="1.1" xmlns="http://www.w3.org/2000/svg" xmlns:xlink="http://www.w3.org/1999/xlink">
    <!-- Generator: sketchtool 54.1 (76490) - https://sketchapp.com -->
    <title>D89EE7EE-5494-431B-8879-F03A34DF525D</title>
    <desc>Created with sketchtool.</desc>
    <g id="Page-1" stroke="none" stroke-width="1" fill="none" fill-rule="evenodd">
        <g id="Dropdown" transform="translate(-187.000000, -375.000000)" fill="#00A6F0">
            <g id="Group" transform="translate(177.000000, 329.000000)">
                <g id="Group-2" transform="translate(10.000000, 13.000000)">
                    <path d="M4.4213569,38.7186428 C3.9272031,38.2250691 3.45619468,37.7529049 2.98518627,37.2830551 C2.75431113,37.0527593 2.53616596,37.0527593 2.30644809,37.2784261 C2.13922275,37.4410218 1.97315467,37.6047749 1.80882249,37.7685279 C1.57794736,37.9965092 1.57794736,38.2383777 1.80650795,38.4675162 C2.47251617,39.1329438 3.13736712,39.7977927 3.80221807,40.4626416 C3.90290046,40.5633237 4.00126831,40.6657417 4.10484387,40.7646879 C4.28884961,40.9411708 4.51798884,40.9446426 4.70951684,40.7722101 C4.73381948,40.7508007 4.75407169,40.7293913 4.77721706,40.7074032 C5.91365507,39.57039 7.05009307,38.4345341 8.1871097,37.2963637 C8.21199098,37.2720611 8.23455772,37.2477585 8.2559672,37.2205628 C8.4023617,37.0429226 8.39831126,36.8074191 8.2409227,36.6442447 C8.04708017,36.4440378 7.85034447,36.2484599 7.64840106,36.0575111 C7.47133892,35.889129 7.25377238,35.8931795 7.06860937,36.0534607 C7.04372809,36.0754488 7.02173998,36.0968582 7.00033051,36.1188462 C6.16767558,36.9497627 5.33444201,37.7801006 4.50236572,38.6133316 C4.47343399,38.6428419 4.45202452,38.6787171 4.4213569,38.7186428 M5.00693493,33.0000162 C7.77454336,33.0052238 10.0092295,35.2451109 9.99997134,38.0046101 C9.99071319,40.7797323 7.75024071,43.0126758 4.98783999,42.9999458 C2.21213068,42.9860587 -0.00577504789,40.7548511 1.12963028e-05,37.9803075 C0.00521900608,35.2254374 2.24742738,32.9930726 5.00693493,33.0000162" id="go"></path>
                </g>
            </g>
        </g>
    </g>
</svg>